<?xml version="1.0" encoding="UTF-8"?>
<!DOCTYPE svg PUBLIC "-//W3C//DTD SVG 1.1//EN" "http://www.w3.org/Graphics/SVG/1.1/DTD/svg11.dtd">
<svg xmlns="http://www.w3.org/2000/svg" version="1.1" width="800px" height="800px" style="shape-rendering:geometricPrecision; text-rendering:geometricPrecision; image-rendering:optimizeQuality; fill-rule:evenodd; clip-rule:evenodd" xmlns:xlink="http://www.w3.org/1999/xlink">
<g><path style="opacity:0.998" fill="#4285f4" d="M 396.5,-0.5 C 398.5,-0.5 400.5,-0.5 402.5,-0.5C 508.98,48.3378 615.647,97.0045 722.5,145.5C 723.785,229.17 723.785,312.837 722.5,396.5C 721.603,397.598 720.77,397.598 720,396.5C 666.572,331.982 612.905,267.649 559,203.5C 558.601,203.728 558.435,204.062 558.5,204.5C 515.219,132.531 451.552,101.697 367.5,112C 293.926,128.572 246.426,173.072 225,245.5C 209.251,323.762 231.751,388.429 292.5,439.5C 291.836,511.841 292.503,583.841 294.5,655.5C 329.468,703.476 364.468,751.476 399.5,799.5C 398.167,799.5 396.833,799.5 395.5,799.5C 304.691,773.188 230.191,722.855 172,648.5C 113.179,572.067 81.179,485.401 76,388.5C 75.1667,307.498 75.3334,226.498 76.5,145.5C 183.495,97.332 290.162,48.6653 396.5,-0.5 Z"/></g>
<g><path style="opacity:1" fill="#fefefe" d="M 558.5,204.5 C 584.413,258.329 586.247,312.996 564,368.5C 550.821,397.163 531.654,420.83 506.5,439.5C 505.833,511.167 505.167,582.833 504.5,654.5C 469.824,620.491 434.824,586.824 399.5,553.5C 364.176,586.824 329.176,620.491 294.5,654.5C 293.833,582.833 293.167,511.167 292.5,439.5C 231.751,388.429 209.251,323.762 225,245.5C 246.426,173.072 293.926,128.572 367.5,112C 451.552,101.697 515.219,132.531 558.5,204.5 Z"/></g>
<g><path style="opacity:1" fill="#2979ea" d="M 388.5,199.5 C 434.37,198.011 466.203,218.344 484,260.5C 496.425,300.545 487.258,334.712 456.5,363C 428.566,383.919 398.233,388.252 365.5,376C 325.93,355.713 307.43,323.213 310,278.5C 318.359,234.308 344.526,207.975 388.5,199.5 Z"/></g>
<g><path style="opacity:1" fill="#2879ea" d="M 722.5,396.5 C 711.3,521.061 659.967,625.561 568.5,710C 557.174,720.173 545.174,729.34 532.5,737.5C 491.723,762.642 448.723,782.975 403.5,798.5C 403.5,798.833 403.5,799.167 403.5,799.5C 402.167,799.5 400.833,799.5 399.5,799.5C 364.468,751.476 329.468,703.476 294.5,655.5C 294.5,655.167 294.5,654.833 294.5,654.5C 329.176,620.491 364.176,586.824 399.5,553.5C 434.824,586.824 469.824,620.491 504.5,654.5C 504.56,655.043 504.893,655.376 505.5,655.5C 506.5,583.503 506.833,511.503 506.5,439.5C 531.654,420.83 550.821,397.163 564,368.5C 586.247,312.996 584.413,258.329 558.5,204.5C 558.435,204.062 558.601,203.728 559,203.5C 612.905,267.649 666.572,331.982 720,396.5C 720.77,397.598 721.603,397.598 722.5,396.5 Z"/></g>
<g><path style="opacity:1" fill="#bad3f9" d="M 292.5,439.5 C 293.167,511.167 293.833,582.833 294.5,654.5C 294.5,654.833 294.5,655.167 294.5,655.5C 292.503,583.841 291.836,511.841 292.5,439.5 Z"/></g>
<g><path style="opacity:1" fill="#b6d1f7" d="M 506.5,439.5 C 506.833,511.503 506.5,583.503 505.5,655.5C 504.893,655.376 504.56,655.043 504.5,654.5C 505.167,582.833 505.833,511.167 506.5,439.5 Z"/></g>
<g><path style="opacity:0.847" fill="#4286f4" d="M 532.5,737.5 C 502.281,759.8 469.281,777.3 433.5,790C 423.653,793.461 413.653,796.294 403.5,798.5C 448.723,782.975 491.723,762.642 532.5,737.5 Z"/></g>
</svg>
